# xmcd
#
# Track frame offsets:
#	150
#	17330
#	31337
#	41255
#	55200
#	64495
#	79425
#	93090
#	105690
#	119040
#	134267
#	145930
#	156330
#	169962
#	180497
#	192312
#	202655
#	212850
#	223002
#	236035
#	257665
#	271872
#
# Disc length: 3892 seconds
#
# Revision: 1
# Processed by: cddbd v1.4PL0 Copyright (c) Steve Scherf et al.
# Submitted via: audiograbber 1.81.03
#
DISCID=400f3216
DTITLE=Otto Brandenburg - But I Do
DYEAR=1998
DGENRE=Oldies
TTITLE0=To lys på et bord
TTITLE1=To kammerater
TTITLE2=What Do You Want To Make Those Eyes At Me For
TTITLE3=Susanne, Birgitte og Hanne
TTITLE4=But I Do
TTITLE5=Når en sailor går i land
TTITLE6=Sukiyaki
TTITLE7=Twilight Time
TTITLE8=Galway Bay
TTITLE9=O Sole Mio
TTITLE10=En u-båd der er gul
TTITLE11=Du kan gi' mig et kys
TTITLE12=Anne-li
TTITLE13=Den er gal
TTITLE14=Natten drog forbi
TTITLE15=Hej lailo lo
TTITLE16=Sytten ti
TTITLE17=Young And Beautiful
TTITLE18=Du lille fisker
TTITLE19=Åh, hvilken dag
TTITLE20=Søren banjomus
TTITLE21=Godnat lille du
EXTD=
EXTT0=
EXTT1=
EXTT2=
EXTT3=
EXTT4=
EXTT5=
EXTT6=
EXTT7=
EXTT8=
EXTT9=
EXTT10=
EXTT11=
EXTT12=
EXTT13=
EXTT14=
EXTT15=
EXTT16=
EXTT17=
EXTT18=
EXTT19=
EXTT20=
EXTT21=
PLAYORDER=
